<svg id="visual" viewBox="0 0 1080 720" width="1080" height="720" xmlns="http://www.w3.org/2000/svg" xmlns:xlink="http://www.w3.org/1999/xlink" version="1.1"><rect x="0" y="0" width="1080" height="720" fill="#070F2B"></rect><path d="M584 0L808 0L808 72L693 72L693 144L694 144L694 216L765 216L765 288L765 288L765 360L735 360L735 432L572 432L572 504L762 504L762 576L874 576L874 648L601 648L601 720L0 720L0 648L0 648L0 576L0 576L0 504L0 504L0 432L0 432L0 360L0 360L0 288L0 288L0 216L0 216L0 144L0 144L0 72L0 72L0 0L0 0Z" fill="#1b1a55"></path><path d="M644 0L561 0L561 72L675 72L675 144L709 144L709 216L700 216L700 288L694 288L694 360L702 360L702 432L531 432L531 504L508 504L508 576L441 576L441 648L505 648L505 720L0 720L0 648L0 648L0 576L0 576L0 504L0 504L0 432L0 432L0 360L0 360L0 288L0 288L0 216L0 216L0 144L0 144L0 72L0 72L0 0L0 0Z" fill="#262761"></path><path d="M334 0L565 0L565 72L432 72L432 144L484 144L484 216L595 216L595 288L588 288L588 360L431 360L431 432L416 432L416 504L619 504L619 576L518 576L518 648L619 648L619 720L0 720L0 648L0 648L0 576L0 576L0 504L0 504L0 432L0 432L0 360L0 360L0 288L0 288L0 216L0 216L0 144L0 144L0 72L0 72L0 0L0 0Z" fill="#31336d"></path><path d="M259 0L480 0L480 72L376 72L376 144L348 144L348 216L312 216L312 288L377 288L377 360L394 360L394 432L393 432L393 504L365 504L365 576L480 576L480 648L265 648L265 720L0 720L0 648L0 648L0 576L0 576L0 504L0 504L0 432L0 432L0 360L0 360L0 288L0 288L0 216L0 216L0 144L0 144L0 72L0 72L0 0L0 0Z" fill="#3c4179"></path><path d="M337 0L283 0L283 72L270 72L270 144L188 144L188 216L289 216L289 288L210 288L210 360L326 360L326 432L250 432L250 504L235 504L235 576L335 576L335 648L199 648L199 720L0 720L0 648L0 648L0 576L0 576L0 504L0 504L0 432L0 432L0 360L0 360L0 288L0 288L0 216L0 216L0 144L0 144L0 72L0 72L0 0L0 0Z" fill="#474e85"></path><path d="M97 0L149 0L149 72L216 72L216 144L219 144L219 216L96 216L96 288L166 288L166 360L208 360L208 432L119 432L119 504L130 504L130 576L131 576L131 648L127 648L127 720L0 720L0 648L0 648L0 576L0 576L0 504L0 504L0 432L0 432L0 360L0 360L0 288L0 288L0 216L0 216L0 144L0 144L0 72L0 72L0 0L0 0Z" fill="#535c91"></path></svg>